<?xml version="1.0" encoding="UTF-8"?>
<svg id="Livello_1" data-name="Livello 1" xmlns="http://www.w3.org/2000/svg" version="1.1" viewBox="0 0 16 16">
  <defs>
    <style>
      .cls-1 {
        fill: #f8e7c0;
      }

      .cls-1, .cls-2 {
        stroke-width: 0px;
      }

      .cls-3 {
        fill: none;
        stroke: #fff;
        stroke-miterlimit: 10;
        stroke-width: .25px;
      }

      .cls-2 {
        fill: #f3b824;
      }
    </style>
  </defs>
  <polygon class="cls-2" points="7.17 7.52 7.17 8.47 8 8.95 8.82 8.47 8.82 7.52 8 7.05 7.17 7.52"/>
  <g>
    <polygon class="cls-2" points="5.6 5.69 5.61 4.76 6.42 4.31 7.22 4.78 7.21 5.71 6.41 6.16 5.6 5.69"/>
    <path class="cls-1" d="M6.41,4.35l.77.45v.89l-.77.45-.77-.45v-.89l.77-.45M6.41,4.29l-.82.47v.95l.82.47.82-.47v-.95l-.82-.47h0Z"/>
  </g>
  <path class="cls-1" d="M9.59,4.35l.77.45v.89l-.77.45-.77-.45v-.89l.77-.45M9.59,4.29l-.82.47v.95l.82.47.82-.47v-.95l-.82-.47h0Z"/>
  <g>
    <polygon class="cls-2" points="8.78 5.68 8.79 4.76 9.6 4.31 10.4 4.78 10.38 5.71 9.59 6.15 8.78 5.68"/>
    <path class="cls-1" d="M9.59,4.34l.77.45v.89l-.77.45-.77-.45v-.89l.77-.45M9.59,4.28l-.82.47v.95l.82.47.82-.47v-.95l-.82-.47h0Z"/>
  </g>
  <g>
    <polygon class="cls-2" points="5.6 8.45 5.61 7.52 6.42 7.07 7.22 7.54 7.21 8.47 6.41 8.92 5.6 8.45"/>
    <path class="cls-1" d="M6.41,7.11l.77.45v.89l-.77.45-.77-.45v-.89l.77-.45M6.41,7.05l-.82.47v.95l.82.47.82-.47v-.95l-.82-.47h0Z"/>
  </g>
  <g>
    <polygon class="cls-2" points="8.78 8.44 8.79 7.52 9.6 7.07 10.4 7.54 10.38 8.47 9.59 8.91 8.78 8.44"/>
    <path class="cls-1" d="M9.59,7.1l.77.45v.89l-.77.45-.77-.45v-.89l.77-.45M9.59,7.04l-.82.47v.95l.82.47.82-.47v-.95l-.82-.47h0Z"/>
  </g>
  <g>
    <polygon class="cls-2" points="5.6 11.2 5.61 10.27 6.42 9.82 7.22 10.3 7.21 11.22 6.41 11.67 5.6 11.2"/>
    <path class="cls-1" d="M6.41,9.86l.77.45v.89l-.77.45-.77-.45v-.89l.77-.45M6.41,9.8l-.82.47v.95l.82.47.82-.47v-.95l-.82-.47h0Z"/>
  </g>
  <path class="cls-1" d="M9.59,9.86l.77.45v.89l-.77.45-.77-.45v-.89l.77-.45M9.59,9.8l-.82.47v.95l.82.47.82-.47v-.95l-.82-.47h0Z"/>
  <g>
    <polygon class="cls-2" points="8.78 11.2 8.79 10.27 9.6 9.82 10.4 10.29 10.38 11.22 9.59 11.66 8.78 11.2"/>
    <path class="cls-1" d="M9.59,9.85l.77.45v.89l-.77.45-.77-.45v-.89l.77-.45M9.59,9.8l-.82.47v.95l.82.47.82-.47v-.95l-.82-.47h0Z"/>
  </g>
  <polygon class="cls-2" points="7.97 7.06 7.21 7.05 7.21 7.51 7.97 7.06"/>
  <polygon class="cls-2" points="8.02 7.06 8.79 7.05 8.79 7.51 8.02 7.06"/>
  <polygon class="cls-2" points="7.97 8.93 7.21 8.94 7.21 8.48 7.97 8.93"/>
  <polygon class="cls-2" points="8.02 8.93 8.79 8.94 8.79 8.48 8.02 8.93"/>
  <g>
    <polygon class="cls-2" points="5.61 5.71 6.43 6.16 6.42 7.1 5.61 7.53 5.61 5.71"/>
    <path class="cls-1" d="M5.63,5.74l.75.43v.9s-.75.42-.75.42v-1.75M5.58,5.65v1.92l.86-.47v-.96s-.86-.48-.86-.48h0Z"/>
  </g>
  <g>
    <polygon class="cls-2" points="6.4 7.08 6.41 6.13 7.24 5.68 7.21 7.54 6.4 7.08"/>
    <path class="cls-1" d="M7.18,5.74v1.75l-.74-.42v-.92s.74-.41.74-.41M7.23,5.66l-.85.47v.98s.85.47.85.47v-1.92h0Z"/>
  </g>
  <line class="cls-3" x1="7.36" y1="5.63" x2="7.36" y2="6.55"/>
  <g>
    <polygon class="cls-2" points="5.61 8.46 6.43 8.91 6.42 9.85 5.61 10.28 5.61 8.46"/>
    <path class="cls-1" d="M5.63,8.49l.75.43v.9s-.75.42-.75.42v-1.75M5.58,8.4v1.92l.86-.47v-.96s-.86-.48-.86-.48h0Z"/>
  </g>
  <g>
    <polygon class="cls-2" points="6.4 9.83 6.41 8.88 7.24 8.43 7.21 10.29 6.4 9.83"/>
    <path class="cls-1" d="M7.18,8.49v1.75l-.74-.42v-.92s.74-.41.74-.41M7.23,8.41l-.85.47v.98s.85.47.85.47v-1.92h0Z"/>
  </g>
  <path class="cls-1" d="M8,7.11l.77.45v.89l-.77.45-.77-.45v-.89l.77-.45M8,7.05l-.82.47v.95l.82.47.82-.47v-.95l-.82-.47h0Z"/>
  <g>
    <polygon class="cls-2" points="8.79 5.7 9.61 6.15 9.6 7.09 8.79 7.52 8.79 5.7"/>
    <path class="cls-1" d="M8.81,5.73l.75.43v.9s-.75.42-.75.42v-1.75M8.76,5.64v1.92l.86-.47v-.96s-.86-.48-.86-.48h0Z"/>
  </g>
  <g>
    <polygon class="cls-2" points="9.58 7.07 9.59 6.12 10.42 5.67 10.39 7.53 9.58 7.07"/>
    <path class="cls-1" d="M10.36,5.74v1.75l-.74-.42v-.92s.74-.41.74-.41M10.41,5.65l-.85.47v.98s.85.47.85.47v-1.92h0Z"/>
  </g>
  <line class="cls-3" x1="10.54" y1="5.63" x2="10.54" y2="6.54"/>
  <g>
    <polygon class="cls-2" points="8.79 8.45 9.61 8.9 9.6 9.84 8.79 10.27 8.79 8.45"/>
    <path class="cls-1" d="M8.81,8.48l.75.43v.9s-.75.42-.75.42v-1.75M8.76,8.4v1.92l.86-.47v-.96s-.86-.48-.86-.48h0Z"/>
  </g>
  <g>
    <polygon class="cls-2" points="9.58 9.83 9.59 8.87 10.42 8.42 10.39 10.28 9.58 9.83"/>
    <path class="cls-1" d="M10.36,8.49v1.75l-.74-.42v-.92s.74-.41.74-.41M10.41,8.4l-.85.47v.98s.85.47.85.47v-1.92h0Z"/>
  </g>
  <line class="cls-3" x1="10.53" y1="8.11" x2="10.53" y2="9.02"/>
</svg>