<?xml version="1.0" encoding="UTF-8"?>
<svg id="Livello_1" data-name="Livello 1" xmlns="http://www.w3.org/2000/svg" version="1.1" viewBox="0 0 16 16">
  <defs>
    <style>
      .cls-1 {
        fill: #f8e7c0;
      }

      .cls-1, .cls-2 {
        stroke-width: 0px;
      }

      .cls-2 {
        fill: #f3b824;
      }
    </style>
  </defs>
  <polygon class="cls-2" points="7.17 7.52 7.17 8.47 8 8.95 8.82 8.47 8.82 7.52 8 7.05 7.17 7.52"/>
  <path class="cls-1" d="M7.21.22l.77.45v.89l-.77.45-.77-.45v-.89l.77-.45M7.21.16l-.82.47v.95l.82.47.82-.47v-.95l-.82-.47h0Z"/>
  <path class="cls-1" d="M8.8.22l.77.45v.89l-.77.45-.77-.45v-.89l.77-.45M8.8.16l-.82.47v.95l.82.47.82-.47v-.95l-.82-.47h0Z"/>
  <path class="cls-1" d="M4.82,1.6l.77.45v.89l-.77.45-.77-.45v-.89l.77-.45M4.82,1.54l-.82.47v.95l.82.47.82-.47v-.95l-.82-.47h0Z"/>
  <path class="cls-1" d="M6.41,1.6l.77.45v.89l-.77.45-.77-.45v-.89l.77-.45M6.41,1.54l-.82.47v.95l.82.47.82-.47v-.95l-.82-.47h0Z"/>
  <path class="cls-1" d="M8,1.6l.77.45v.89l-.77.45-.77-.45v-.89l.77-.45M8,1.54l-.82.47v.95l.82.47.82-.47v-.95l-.82-.47h0Z"/>
  <path class="cls-1" d="M9.59,1.6l.77.45v.89l-.77.45-.77-.45v-.89l.77-.45M9.59,1.54l-.82.47v.95l.82.47.82-.47v-.95l-.82-.47h0Z"/>
  <path class="cls-1" d="M11.18,1.59l.77.45v.89l-.77.45-.77-.45v-.89l.77-.45M11.18,1.54l-.82.47v.95l.82.47.82-.47v-.95l-.82-.47h0Z"/>
  <path class="cls-1" d="M2.43,2.97l.77.45v.89l-.77.45-.77-.45v-.89l.77-.45M2.43,2.92l-.82.47v.95l.82.47.82-.47v-.95l-.82-.47h0Z"/>
  <path class="cls-1" d="M1.64,4.35l.77.45v.89l-.77.45-.77-.45v-.89l.77-.45M1.64,4.29l-.82.47v.95l.82.47.82-.47v-.95l-.82-.47h0Z"/>
  <path class="cls-1" d="M4.03,2.97l.77.45v.89l-.77.45-.77-.45v-.89l.77-.45M4.03,2.92l-.82.47v.95l.82.47.82-.47v-.95l-.82-.47h0Z"/>
  <path class="cls-1" d="M5.62,2.97l.77.45v.89l-.77.45-.77-.45v-.89l.77-.45M5.62,2.92l-.82.47v.95l.82.47.82-.47v-.95l-.82-.47h0Z"/>
  <path class="cls-1" d="M7.21,2.97l.77.45v.89l-.77.45-.77-.45v-.89l.77-.45M7.21,2.92l-.82.47v.95l.82.47.82-.47v-.95l-.82-.47h0Z"/>
  <path class="cls-1" d="M8.8,2.97l.77.45v.89l-.77.45-.77-.45v-.89l.77-.45M8.8,2.92l-.82.47v.95l.82.47.82-.47v-.95l-.82-.47h0Z"/>
  <path class="cls-1" d="M10.39,2.97l.77.45v.89l-.77.45-.77-.45v-.89l.77-.45M10.39,2.92l-.82.47v.95l.82.47.82-.47v-.95l-.82-.47h0Z"/>
  <path class="cls-1" d="M11.98,2.97l.77.45v.89l-.77.45-.77-.45v-.89l.77-.45M11.98,2.92l-.82.47v.95l.82.47.82-.47v-.95l-.82-.47h0Z"/>
  <path class="cls-1" d="M13.57,2.97l.77.45v.89l-.77.45-.77-.45v-.89l.77-.45M13.57,2.92l-.82.47v.95l.82.47.82-.47v-.95l-.82-.47h0Z"/>
  <path class="cls-1" d="M3.23,4.35l.77.45v.89l-.77.45-.77-.45v-.89l.77-.45M3.23,4.29l-.82.47v.95l.82.47.82-.47v-.95l-.82-.47h0Z"/>
  <path class="cls-1" d="M4.82,4.35l.77.45v.89l-.77.45-.77-.45v-.89l.77-.45M4.82,4.29l-.82.47v.95l.82.47.82-.47v-.95l-.82-.47h0Z"/>
  <g>
    <polygon class="cls-2" points="5.6 5.69 5.61 4.76 6.42 4.31 7.22 4.78 7.21 5.71 6.41 6.16 5.6 5.69"/>
    <path class="cls-1" d="M6.41,4.35l.77.45v.89l-.77.45-.77-.45v-.89l.77-.45M6.41,4.29l-.82.47v.95l.82.47.82-.47v-.95l-.82-.47h0Z"/>
  </g>
  <path class="cls-1" d="M8,4.35l.77.45v.89l-.77.45-.77-.45v-.89l.77-.45M8,4.29l-.82.47v.95l.82.47.82-.47v-.95l-.82-.47h0Z"/>
  <path class="cls-1" d="M9.59,4.35l.77.45v.89l-.77.45-.77-.45v-.89l.77-.45M9.59,4.29l-.82.47v.95l.82.47.82-.47v-.95l-.82-.47h0Z"/>
  <g>
    <polygon class="cls-2" points="8.78 5.68 8.79 4.76 9.6 4.31 10.4 4.78 10.38 5.71 9.59 6.15 8.78 5.68"/>
    <path class="cls-1" d="M9.59,4.34l.77.45v.89l-.77.45-.77-.45v-.89l.77-.45M9.59,4.28l-.82.47v.95l.82.47.82-.47v-.95l-.82-.47h0Z"/>
  </g>
  <path class="cls-1" d="M12.77,4.35l.77.45v.89l-.77.45-.77-.45v-.89l.77-.45M12.77,4.29l-.82.47v.95l.82.47.82-.47v-.95l-.82-.47h0Z"/>
  <path class="cls-1" d="M14.35,4.36l.77.45v.89l-.77.45-.77-.45v-.89l.77-.45M14.35,4.3l-.82.47v.95l.82.47.82-.47v-.95l-.82-.47h0Z"/>
  <path class="cls-1" d="M.84,5.73l.77.45v.89l-.77.45-.77-.45v-.89l.77-.45M.84,5.68L.02,6.15v.95l.82.47.82-.47v-.95l-.82-.47h0Z"/>
  <path class="cls-1" d="M2.43,5.73l.77.45v.89l-.77.45-.77-.45v-.89l.77-.45M2.43,5.68l-.82.47v.95l.82.47.82-.47v-.95l-.82-.47h0Z"/>
  <path class="cls-1" d="M1.64,7.11l.77.45v.89l-.77.45-.77-.45v-.89l.77-.45M1.64,7.05l-.82.47v.95l.82.47.82-.47v-.95l-.82-.47h0Z"/>
  <path class="cls-1" d="M4.03,5.73l.77.45v.89l-.77.45-.77-.45v-.89l.77-.45M4.03,5.68l-.82.47v.95l.82.47.82-.47v-.95l-.82-.47h0Z"/>
  <path class="cls-1" d="M5.62,5.73l.77.45v.89l-.77.45-.77-.45v-.89l.77-.45M5.62,5.68l-.82.47v.95l.82.47.82-.47v-.95l-.82-.47h0Z"/>
  <path class="cls-1" d="M7.21,5.73l.77.45v.89l-.77.45-.77-.45v-.89l.77-.45M7.21,5.68l-.82.47v.95l.82.47.82-.47v-.95l-.82-.47h0Z"/>
  <path class="cls-1" d="M8.8,5.73l.77.45v.89l-.77.45-.77-.45v-.89l.77-.45M8.8,5.68l-.82.47v.95l.82.47.82-.47v-.95l-.82-.47h0Z"/>
  <path class="cls-1" d="M10.39,5.73l.77.45v.89l-.77.45-.77-.45v-.89l.77-.45M10.39,5.68l-.82.47v.95l.82.47.82-.47v-.95l-.82-.47h0Z"/>
  <path class="cls-1" d="M11.98,5.73l.77.45v.89l-.77.45-.77-.45v-.89l.77-.45M11.98,5.68l-.82.47v.95l.82.47.82-.47v-.95l-.82-.47h0Z"/>
  <path class="cls-1" d="M13.57,5.73l.77.45v.89l-.77.45-.77-.45v-.89l.77-.45M13.57,5.68l-.82.47v.95l.82.47.82-.47v-.95l-.82-.47h0Z"/>
  <path class="cls-1" d="M3.23,7.11l.77.45v.89l-.77.45-.77-.45v-.89l.77-.45M3.23,7.05l-.82.47v.95l.82.47.82-.47v-.95l-.82-.47h0Z"/>
  <path class="cls-1" d="M4.82,7.11l.77.45v.89l-.77.45-.77-.45v-.89l.77-.45M4.82,7.05l-.82.47v.95l.82.47.82-.47v-.95l-.82-.47h0Z"/>
  <g>
    <polygon class="cls-2" points="5.6 8.45 5.61 7.52 6.42 7.07 7.22 7.54 7.21 8.47 6.41 8.92 5.6 8.45"/>
    <path class="cls-1" d="M6.41,7.11l.77.45v.89l-.77.45-.77-.45v-.89l.77-.45M6.41,7.05l-.82.47v.95l.82.47.82-.47v-.95l-.82-.47h0Z"/>
  </g>
  <g>
    <polygon class="cls-2" points="8.78 8.44 8.79 7.52 9.6 7.07 10.4 7.54 10.38 8.47 9.59 8.91 8.78 8.44"/>
    <path class="cls-1" d="M9.59,7.1l.77.45v.89l-.77.45-.77-.45v-.89l.77-.45M9.59,7.04l-.82.47v.95l.82.47.82-.47v-.95l-.82-.47h0Z"/>
  </g>
  <path class="cls-1" d="M12.77,7.11l.77.45v.89l-.77.45-.77-.45v-.89l.77-.45M12.77,7.05l-.82.47v.95l.82.47.82-.47v-.95l-.82-.47h0Z"/>
  <path class="cls-1" d="M14.35,7.12l.77.45v.89l-.77.45-.77-.45v-.89l.77-.45M14.35,7.06l-.82.47v.95l.82.47.82-.47v-.95l-.82-.47h0Z"/>
  <path class="cls-1" d="M15.16,5.73l.77.45v.89l-.77.45-.77-.45v-.89l.77-.45M15.16,5.68l-.82.47v.95l.82.47.82-.47v-.95l-.82-.47h0Z"/>
  <path class="cls-1" d="M.84,8.49l.77.45v.89l-.77.45-.77-.45v-.89l.77-.45M.84,8.43l-.82.47v.95l.82.47.82-.47v-.95l-.82-.47h0Z"/>
  <path class="cls-1" d="M2.43,8.49l.77.45v.89l-.77.45-.77-.45v-.89l.77-.45M2.43,8.43l-.82.47v.95l.82.47.82-.47v-.95l-.82-.47h0Z"/>
  <path class="cls-1" d="M1.64,9.86l.77.45v.89l-.77.45-.77-.45v-.89l.77-.45M1.64,9.8l-.82.47v.95l.82.47.82-.47v-.95l-.82-.47h0Z"/>
  <path class="cls-1" d="M4.03,8.49l.77.45v.89l-.77.45-.77-.45v-.89l.77-.45M4.03,8.43l-.82.47v.95l.82.47.82-.47v-.95l-.82-.47h0Z"/>
  <path class="cls-1" d="M5.62,8.49l.77.45v.89l-.77.45-.77-.45v-.89l.77-.45M5.62,8.43l-.82.47v.95l.82.47.82-.47v-.95l-.82-.47h0Z"/>
  <path class="cls-1" d="M7.21,8.49l.77.45v.89l-.77.45-.77-.45v-.89l.77-.45M7.21,8.43l-.82.47v.95l.82.47.82-.47v-.95l-.82-.47h0Z"/>
  <path class="cls-1" d="M8.8,8.49l.77.45v.89l-.77.45-.77-.45v-.89l.77-.45M8.8,8.43l-.82.47v.95l.82.47.82-.47v-.95l-.82-.47h0Z"/>
  <path class="cls-1" d="M10.39,8.49l.77.45v.89l-.77.45-.77-.45v-.89l.77-.45M10.39,8.43l-.82.47v.95l.82.47.82-.47v-.95l-.82-.47h0Z"/>
  <path class="cls-1" d="M11.98,8.49l.77.45v.89l-.77.45-.77-.45v-.89l.77-.45M11.98,8.43l-.82.47v.95l.82.47.82-.47v-.95l-.82-.47h0Z"/>
  <path class="cls-1" d="M13.57,8.49l.77.45v.89l-.77.45-.77-.45v-.89l.77-.45M13.57,8.43l-.82.47v.95l.82.47.82-.47v-.95l-.82-.47h0Z"/>
  <path class="cls-1" d="M3.23,9.86l.77.45v.89l-.77.45-.77-.45v-.89l.77-.45M3.23,9.8l-.82.47v.95l.82.47.82-.47v-.95l-.82-.47h0Z"/>
  <path class="cls-1" d="M4.82,9.86l.77.45v.89l-.77.45-.77-.45v-.89l.77-.45M4.82,9.8l-.82.47v.95l.82.47.82-.47v-.95l-.82-.47h0Z"/>
  <g>
    <polygon class="cls-2" points="5.6 11.2 5.61 10.27 6.42 9.82 7.22 10.3 7.21 11.22 6.41 11.67 5.6 11.2"/>
    <path class="cls-1" d="M6.41,9.86l.77.45v.89l-.77.45-.77-.45v-.89l.77-.45M6.41,9.8l-.82.47v.95l.82.47.82-.47v-.95l-.82-.47h0Z"/>
  </g>
  <path class="cls-1" d="M8,9.86l.77.45v.89l-.77.45-.77-.45v-.89l.77-.45M8,9.8l-.82.47v.95l.82.47.82-.47v-.95l-.82-.47h0Z"/>
  <path class="cls-1" d="M9.59,9.86l.77.45v.89l-.77.45-.77-.45v-.89l.77-.45M9.59,9.8l-.82.47v.95l.82.47.82-.47v-.95l-.82-.47h0Z"/>
  <g>
    <polygon class="cls-2" points="8.78 11.2 8.79 10.27 9.6 9.82 10.4 10.29 10.38 11.22 9.59 11.66 8.78 11.2"/>
    <path class="cls-1" d="M9.59,9.85l.77.45v.89l-.77.45-.77-.45v-.89l.77-.45M9.59,9.8l-.82.47v.95l.82.47.82-.47v-.95l-.82-.47h0Z"/>
  </g>
  <path class="cls-1" d="M12.77,9.86l.77.45v.89l-.77.45-.77-.45v-.89l.77-.45M12.77,9.8l-.82.47v.95l.82.47.82-.47v-.95l-.82-.47h0Z"/>
  <path class="cls-1" d="M14.35,9.87l.77.45v.89l-.77.45-.77-.45v-.89l.77-.45M14.35,9.81l-.82.47v.95l.82.47.82-.47v-.95l-.82-.47h0Z"/>
  <path class="cls-1" d="M15.16,8.49l.77.45v.89l-.77.45-.77-.45v-.89l.77-.45M15.16,8.43l-.82.47v.95l.82.47.82-.47v-.95l-.82-.47h0Z"/>
  <path class="cls-1" d="M2.43,11.25l.77.45v.89l-.77.45-.77-.45v-.89l.77-.45M2.43,11.19l-.82.47v.95l.82.47.82-.47v-.95l-.82-.47h0Z"/>
  <path class="cls-1" d="M4.03,11.25l.77.45v.89l-.77.45-.77-.45v-.89l.77-.45M4.03,11.19l-.82.47v.95l.82.47.82-.47v-.95l-.82-.47h0Z"/>
  <path class="cls-1" d="M5.62,11.25l.77.45v.89l-.77.45-.77-.45v-.89l.77-.45M5.62,11.19l-.82.47v.95l.82.47.82-.47v-.95l-.82-.47h0Z"/>
  <path class="cls-1" d="M7.21,11.25l.77.45v.89l-.77.45-.77-.45v-.89l.77-.45M7.21,11.19l-.82.47v.95l.82.47.82-.47v-.95l-.82-.47h0Z"/>
  <path class="cls-1" d="M8.8,11.25l.77.45v.89l-.77.45-.77-.45v-.89l.77-.45M8.8,11.19l-.82.47v.95l.82.47.82-.47v-.95l-.82-.47h0Z"/>
  <path class="cls-1" d="M10.39,11.25l.77.45v.89l-.77.45-.77-.45v-.89l.77-.45M10.39,11.19l-.82.47v.95l.82.47.82-.47v-.95l-.82-.47h0Z"/>
  <path class="cls-1" d="M11.98,11.25l.77.45v.89l-.77.45-.77-.45v-.89l.77-.45M11.98,11.19l-.82.47v.95l.82.47.82-.47v-.95l-.82-.47h0Z"/>
  <path class="cls-1" d="M13.57,11.25l.77.45v.89l-.77.45-.77-.45v-.89l.77-.45M13.57,11.19l-.82.47v.95l.82.47.82-.47v-.95l-.82-.47h0Z"/>
  <path class="cls-1" d="M4.82,12.62l.77.45v.89l-.77.45-.77-.45v-.89l.77-.45M4.82,12.56l-.82.47v.95l.82.47.82-.47v-.95l-.82-.47h0Z"/>
  <path class="cls-1" d="M6.41,12.62l.77.45v.89l-.77.45-.77-.45v-.89l.77-.45M6.41,12.56l-.82.47v.95l.82.47.82-.47v-.95l-.82-.47h0Z"/>
  <path class="cls-1" d="M8,12.62l.77.45v.89l-.77.45-.77-.45v-.89l.77-.45M8,12.56l-.82.47v.95l.82.47.82-.47v-.95l-.82-.47h0Z"/>
  <path class="cls-1" d="M9.59,12.62l.77.45v.89l-.77.45-.77-.45v-.89l.77-.45M9.59,12.56l-.82.47v.95l.82.47.82-.47v-.95l-.82-.47h0Z"/>
  <path class="cls-1" d="M11.18,12.62l.77.45v.89l-.77.45-.77-.45v-.89l.77-.45M11.18,12.56l-.82.47v.95l.82.47.82-.47v-.95l-.82-.47h0Z"/>
  <path class="cls-1" d="M7.21,14l.77.45v.89l-.77.45-.77-.45v-.89l.77-.45M7.21,13.94l-.82.47v.95l.82.47.82-.47v-.95l-.82-.47h0Z"/>
  <path class="cls-1" d="M8.8,14l.77.45v.89l-.77.45-.77-.45v-.89l.77-.45M8.8,13.94l-.82.47v.95l.82.47.82-.47v-.95l-.82-.47h0Z"/>
  <polygon class="cls-2" points="5.62 5.74 5.62 7.51 6.38 7.06 6.38 6.17 5.62 5.74"/>
  <polygon class="cls-2" points="5.62 8.49 5.62 10.26 6.38 9.82 6.38 8.92 5.62 8.49"/>
  <polygon class="cls-2" points="7.21 5.74 7.21 7.51 6.44 7.07 6.44 6.17 7.21 5.74"/>
  <polygon class="cls-2" points="7.21 8.48 7.21 10.25 6.44 9.81 6.44 8.92 7.21 8.48"/>
  <polygon class="cls-2" points="8.79 5.74 8.79 7.51 9.55 7.07 9.55 6.17 8.79 5.74"/>
  <polygon class="cls-2" points="8.79 8.48 8.79 10.25 9.56 9.81 9.56 8.92 8.79 8.48"/>
  <polygon class="cls-2" points="10.38 5.73 10.38 7.5 9.61 7.06 9.61 6.17 10.38 5.73"/>
  <polygon class="cls-2" points="10.38 8.49 10.38 10.26 9.61 9.81 9.61 8.92 10.38 8.49"/>
  <polygon class="cls-2" points="7.97 7.06 7.21 7.05 7.21 7.51 7.97 7.06"/>
  <polygon class="cls-2" points="8.02 7.06 8.79 7.05 8.79 7.51 8.02 7.06"/>
  <polygon class="cls-2" points="7.97 8.93 7.21 8.94 7.21 8.48 7.97 8.93"/>
  <polygon class="cls-2" points="8.02 8.93 8.79 8.94 8.79 8.48 8.02 8.93"/>
</svg>